<?xml version="1.0" encoding="UTF-8"?>
<!DOCTYPE svg PUBLIC "-//W3C//DTD SVG 1.1//EN" "http://www.w3.org/Graphics/SVG/1.1/DTD/svg11.dtd">
<!-- Creator: CorelDRAW X7 -->
<svg xmlns="http://www.w3.org/2000/svg" xml:space="preserve" width="258.081mm" height="67.2373mm" version="1.1" style="shape-rendering:geometricPrecision; text-rendering:geometricPrecision; image-rendering:optimizeQuality; fill-rule:evenodd; clip-rule:evenodd"
viewBox="0 0 31179 8123"
 xmlns:xlink="http://www.w3.org/1999/xlink">
 <defs>
  <style type="text/css">
   <![CDATA[
    .fil1 {fill:#000A31}
    .fil2 {fill:#0095EB}
    .fil0 {fill:#01BFD9}
    .fil3 {fill:#0095EB;fill-rule:nonzero}
   ]]>
  </style>
 </defs>
 <g id="Camada_x0020_1">
  <metadata id="CorelCorpID_0Corel-Layer"/>
  <g id="_1861339530160">
   <path class="fil0" d="M8180 2844l-531 261c-2064,1466 -7061,1405 -7620,541 2912,808 6270,114 7495,-999l118 -617 882 -295c1112,-418 -19,864 -344,1109z"/>
   <path class="fil0" d="M8520 3763l-540 379c-743,444 -1596,754 -2522,959 -2258,501 -5181,233 -5458,-455 1222,817 4215,525 5737,86 930,-267 1646,-671 2112,-1094l117 -617 882 -294c768,-313 -2,791 -328,1036z"/>
   <path class="fil1" d="M4263 183c-1298,541 -3118,982 -3540,3858 43,2929 2025,3589 3098,4032 -2945,-1493 -3532,-3516 -1415,-6065 -751,2625 -71,4686 2233,6108 -2327,-1860 -2819,-4144 -1089,-6588 -201,3257 496,4928 1407,6548 -998,-2493 -1461,-4803 -383,-6731l23 -67 -334 -1095z"/>
   <path class="fil2" d="M5461 166c1098,796 1848,1867 2387,3486 -634,540 -1347,877 -2110,1087 -181,-1849 -770,-3383 -1587,-4739 1152,3149 1874,6069 966,8123 680,-715 829,-1807 692,-3101 751,-204 1476,-490 2171,-880 111,1401 -595,2619 -1887,3707 1138,-587 1913,-1565 2439,-2802 591,-1391 -1513,-4403 -3071,-4881z"/>
  </g>
  <polygon class="fil3" points="9792,6481 10979,2941 11808,2941 12319,5226 13550,2941 14343,2941 14493,6481 13757,6481 13674,4034 12372,6481 11963,6481 11383,3974 10554,6481 "/>
  <path id="1" class="fil3" d="M16978 6338c-129,64 -269,113 -421,146 -152,33 -309,49 -473,49 -360,0 -645,-104 -855,-312 -210,-209 -315,-493 -315,-852 0,-399 122,-720 364,-966 244,-245 565,-368 963,-368 323,0 572,92 747,278 175,186 264,449 264,791 0,42 -1,85 -4,130 -2,45 -7,89 -12,133l-1591 3c0,8 -1,20 -3,38 -2,16 -2,27 -2,32 0,172 50,303 152,394 102,89 251,134 444,134 110,0 235,-20 376,-62 141,-41 305,-107 494,-197l-128 629zm-1235 -1386l814 0 0 -48c0,-124 -29,-219 -87,-284 -58,-65 -143,-98 -254,-98 -115,0 -212,36 -291,109 -79,73 -139,180 -182,321z"/>
  <path id="2" class="fil3" d="M19615 6338c-128,64 -268,113 -420,146 -152,33 -310,49 -474,49 -359,0 -644,-104 -854,-312 -210,-209 -316,-493 -316,-852 0,-399 122,-720 365,-966 244,-245 564,-368 962,-368 323,0 572,92 748,278 175,186 263,449 263,791 0,42 -1,85 -3,130 -3,45 -7,89 -12,133l-1592 3c0,8 -1,20 -2,38 -2,16 -3,27 -3,32 0,172 51,303 153,394 102,89 251,134 444,134 110,0 235,-20 376,-62 141,-41 305,-107 494,-197l-129 629zm-1234 -1386l814 0 0 -48c0,-124 -30,-219 -88,-284 -58,-65 -142,-98 -254,-98 -115,0 -211,36 -290,109 -79,73 -140,180 -182,321z"/>
  <path id="3" class="fil3" d="M21779 6373c-103,53 -206,92 -310,117 -103,25 -205,38 -306,38 -246,0 -432,-66 -560,-199 -127,-133 -191,-329 -191,-589 0,-35 2,-79 8,-133 6,-53 15,-112 27,-178l134 -808 -485 0 83 -540 491 0 83 -497 704 0 -76 497 534 0 -79 540 -533 0 -129 866c-2,7 -3,15 -3,23 -5,44 -8,76 -8,96 0,88 19,153 55,196 36,42 92,63 168,63 43,0 95,-11 159,-31 65,-20 142,-53 234,-99l0 638z"/>
  <polygon id="4" class="fil3" points="22108,6481 22636,2941 23414,2941 23207,4325 24845,4325 25052,2941 25829,2941 25301,6481 24523,6481 24736,5030 23103,5030 22885,6481 "/>
  <path id="5" class="fil3" d="M26255 4081l704 0 -217 1450c-6,44 -11,83 -15,118 -3,35 -5,61 -5,80 0,87 18,155 54,204 37,47 88,72 153,72 94,0 192,-32 296,-93 103,-61 208,-150 315,-267l232 -1564 697 0 -360 2400 -693 0 40 -268c-131,108 -262,188 -391,239 -129,51 -265,76 -406,76 -204,0 -364,-59 -479,-175 -116,-117 -173,-278 -173,-484 0,-46 1,-92 5,-136 3,-45 8,-88 14,-128l229 -1524z"/>
  <path id="6" class="fil3" d="M28649 6432l519 -3491 704 0 -201 1329c113,-80 222,-138 328,-177 104,-39 209,-58 313,-58 257,0 466,98 626,296 160,197 241,455 241,772 0,463 -144,816 -432,1062 -288,246 -703,368 -1247,368 -138,0 -278,-8 -419,-25 -141,-17 -285,-42 -432,-76zm762 -464c13,0 31,1 55,3 22,2 39,2 49,2 303,0 538,-71 704,-215 167,-143 250,-344 250,-603 0,-166 -36,-295 -106,-388 -70,-95 -164,-141 -284,-141 -88,0 -173,22 -256,68 -83,46 -164,116 -245,211l-167 1063z"/>
 </g>
</svg>
