<svg width="364" height="126" viewBox="0 0 364 126" fill="none" xmlns="http://www.w3.org/2000/svg">
<path d="M46.3536 66.8785C46.4853 71.0617 46.0213 75.3385 44.9744 79.5899C43.8961 83.9685 42.3139 88.1578 40.2723 92.0418C39.5543 93.4069 38.1634 94.239 36.5504 94.2673C35.4091 94.2873 34.3255 93.8765 33.4997 93.1107C36.2012 83.2945 36.463 78.4161 32.0497 72.1505C25.7013 67.5343 20.4351 69.0837 10.9124 72.1644C9.91977 71.2439 9.45586 69.9611 9.64013 68.645C9.82072 67.3509 10.6035 66.2504 11.7866 65.6251C15.755 63.5294 20.0587 61.8635 24.5771 60.6745C28.7471 59.5773 32.9692 58.9839 37.1256 58.9111C37.338 58.9074 37.548 58.9051 37.7543 58.904C42.357 58.882 46.2147 62.4595 46.3536 66.8785ZM89.1649 51.7217C84.7537 56.1103 79.9914 60.4141 75.335 64.3987C76.3256 68.6187 77.6052 76.465 75.6171 83.3901C72.8545 93.0147 66.4633 100.011 66.1927 100.304C65.5011 101.052 64.5217 101.498 63.4807 101.538C63.4537 101.539 63.4273 101.539 63.4003 101.54C62.3879 101.557 61.4085 101.188 60.6795 100.512L49.5136 90.1567C50.69 87.2933 51.6616 84.3215 52.4126 81.2708C53.6137 76.3931 54.1458 71.4728 53.9937 66.6472C53.7264 58.1462 46.5814 51.5198 37.7266 51.562C37.4861 51.5632 37.2425 51.566 36.9959 51.5704C32.2042 51.6544 27.3497 52.3352 22.5664 53.5939C19.4181 54.4221 16.3607 55.4586 13.4228 56.6884L2.25693 46.3337C1.50829 45.6395 1.08728 44.681 1.0916 43.6808C1.09592 42.6801 1.52555 41.7244 2.28042 41.0341C2.57584 40.7641 9.63017 34.3838 19.5472 31.3932C22.2386 30.5819 25.3141 30.1402 28.6894 30.0811C32.8631 30.0079 36.7323 30.529 39.3158 30.9978C43.2981 26.388 47.6091 21.6649 52.0203 17.2762C66.8692 2.50332 89.6268 0.537947 98.7221 0.378534C100.324 0.350459 101.26 0.386436 101.361 0.391021C103.289 0.471302 104.849 1.91842 105 3.76571C105.1 4.98046 107.232 33.7467 89.1649 51.7217ZM86.2387 40.4633C89.1313 37.5856 90.6853 33.7997 90.6151 29.8034C90.5447 25.8067 88.8585 22.0776 85.8665 19.303C82.8745 16.5284 78.9353 15.0407 74.7749 15.1136C70.614 15.1866 66.7295 16.8114 63.837 19.6891C60.9444 22.5669 59.3903 26.3527 59.4606 30.3495C59.531 34.3463 61.2172 38.0748 64.2092 40.8495C67.2012 43.6241 71.1404 45.1117 75.3013 45.0388C79.4617 44.9659 83.3462 43.3411 86.2387 40.4633ZM74.904 22.4544C72.7846 22.4915 70.8059 23.3192 69.3324 24.7853C67.8593 26.2513 67.0671 28.1797 67.1029 30.2155C77.4394 15.2831 89.1755 36.364 69.522 35.5644C71.0462 36.9774 73.0527 37.7357 75.1722 37.6986C77.2916 37.6614 79.2703 36.8337 80.7439 35.3677C82.2169 33.9016 83.0091 31.9732 82.9733 29.9374C82.9375 27.9016 82.0785 26.0021 80.5542 24.5886C79.0295 23.1751 77.023 22.4172 74.904 22.4544Z" fill="url(#paint0_radial)"/>
<path d="M123.736 68.361C125.144 69.2143 126.317 70.4303 127.256 72.009C128.237 73.5876 128.728 75.6996 128.728 78.345C128.728 80.9476 127.896 83.3156 126.232 85.449C123.16 89.4596 118.488 91.465 112.216 91.465C109.485 91.465 106.776 91.081 104.088 90.313C101.443 89.5023 99.48 88.6916 98.2 87.881L96.28 86.729L99.032 81.225C102.104 82.7183 104.877 83.465 107.352 83.465C109.827 83.465 111.064 82.6756 111.064 81.097C111.064 80.201 110.573 79.369 109.592 78.601C108.653 77.7903 107.48 77.0223 106.072 76.297C104.707 75.5716 103.32 74.7396 101.912 73.801C100.547 72.8196 99.3733 71.4756 98.392 69.7689C97.4533 68.0196 96.984 65.993 96.984 63.6889C96.984 59.5929 98.5413 56.4783 101.656 54.3449C104.813 52.2116 108.611 51.145 113.048 51.145C115.693 51.145 118.168 51.465 120.472 52.1049C122.819 52.7449 124.483 53.3849 125.464 54.0249L127 54.985L124.504 60.4249C122.328 59.4863 120.131 59.017 117.912 59.017C115.736 59.017 114.648 59.849 114.648 61.5129C114.648 62.409 115.117 63.2196 116.056 63.945C117.037 64.6703 118.211 65.3743 119.576 66.0569C120.984 66.697 122.371 67.465 123.736 68.361ZM149.193 79.433C149.15 81.9076 150.025 83.145 151.817 83.145C152.329 83.145 152.947 82.9103 153.673 82.441L155.017 88.649C154.761 88.8623 154.398 89.1396 153.929 89.481C153.502 89.7796 152.542 90.185 151.049 90.697C149.598 91.209 148.083 91.465 146.505 91.465C143.603 91.465 141.235 90.4836 139.401 88.521C137.566 86.5156 136.585 83.977 136.457 80.905L135.881 68.809H130.953L131.721 60.4889H135.561L135.305 54.2169L150.473 51.145L150.025 60.4889H153.737L154.505 68.809H149.641L149.193 79.433ZM169.802 91.465C166.516 91.465 163.807 90.505 161.674 88.585C159.583 86.665 158.538 83.9556 158.538 80.457C158.538 76.9156 159.732 74.3556 162.122 72.777C164.511 71.1556 167.391 70.3449 170.762 70.3449C174.132 70.3449 177.055 70.8783 179.53 71.945C178.975 68.4036 176.735 66.6329 172.81 66.6329C171.018 66.6329 168.799 66.9956 166.154 67.7209L164.554 61.9609C168.394 60.3823 172.298 59.5929 176.266 59.5929C187.7 59.5929 193.418 64.4569 193.418 74.1849C193.418 77.513 193.034 82.121 192.266 88.009L191.946 90.825H181.386L181.002 87.305C178.1 90.0783 174.367 91.465 169.802 91.465ZM175.562 83.529C177.482 83.529 179.124 82.9956 180.49 81.929L180.106 77.705C179.039 76.9796 177.844 76.617 176.522 76.617C175.242 76.617 174.175 76.937 173.322 77.577C172.511 78.217 172.106 79.0063 172.106 79.945C172.106 80.8836 172.426 81.7156 173.066 82.441C173.706 83.1663 174.538 83.529 175.562 83.529ZM211.441 64.649C213.702 61.2783 216.497 59.5929 219.825 59.5929C221.403 59.5929 222.854 59.9769 224.177 60.7449L222.641 71.2409C220.934 70.0463 219.014 69.4489 216.881 69.4489C214.833 69.4489 213.446 70.3023 212.721 72.009C212.294 73.0756 212.017 74.0996 211.889 75.081L210.673 90.825H199.153L197.233 60.4889H209.841L211.441 64.649ZM243.068 79.433C243.025 81.9076 243.9 83.145 245.692 83.145C246.204 83.145 246.822 82.9103 247.548 82.441L248.892 88.649C248.636 88.8623 248.273 89.1396 247.804 89.481C247.377 89.7796 246.417 90.185 244.924 90.697C243.473 91.209 241.958 91.465 240.38 91.465C237.478 91.465 235.11 90.4836 233.276 88.521C231.441 86.5156 230.46 83.977 230.332 80.905L229.756 68.809H224.828L225.596 60.4889H229.436L229.18 54.2169L244.348 51.145L243.9 60.4889H247.612L248.38 68.809H243.516L243.068 79.433ZM263.677 91.465C260.391 91.465 257.682 90.505 255.549 88.585C253.458 86.665 252.413 83.9556 252.413 80.457C252.413 76.9156 253.607 74.3556 255.997 72.777C258.386 71.1556 261.266 70.3449 264.637 70.3449C268.007 70.3449 270.93 70.8783 273.405 71.945C272.85 68.4036 270.61 66.6329 266.685 66.6329C264.893 66.6329 262.674 66.9956 260.029 67.7209L258.429 61.9609C262.269 60.3823 266.173 59.5929 270.141 59.5929C281.575 59.5929 287.293 64.4569 287.293 74.1849C287.293 77.513 286.909 82.121 286.141 88.009L285.821 90.825H275.261L274.877 87.305C271.975 90.0783 268.242 91.465 263.677 91.465ZM269.437 83.529C271.357 83.529 272.999 82.9956 274.365 81.929L273.981 77.705C272.914 76.9796 271.719 76.617 270.397 76.617C269.117 76.617 268.05 76.937 267.197 77.577C266.386 78.217 265.981 79.0063 265.981 79.945C265.981 80.8836 266.301 81.7156 266.941 82.441C267.581 83.1663 268.413 83.529 269.437 83.529ZM312.1 71.433C314.062 71.433 315.62 70.8356 316.772 69.6409C317.924 68.4463 318.5 66.9956 318.5 65.2889C318.5 63.5396 317.945 62.2383 316.836 61.385C315.769 60.4889 314.382 60.0409 312.676 60.0409H310.116L309.028 71.433H312.1ZM319.332 52.041C323.897 52.041 327.545 53.129 330.276 55.305C333.049 57.4383 334.436 60.617 334.436 64.841C334.436 66.377 334.116 67.849 333.476 69.257C332.836 70.6223 332.068 71.7316 331.172 72.5849C329.294 74.2916 327.566 75.5076 325.988 76.233L325.028 76.617L331.94 90.825H320.74L308.324 78.345L307.108 90.825H294.628L290.788 52.041H319.332Z" fill="url(#paint1_radial)"/>
<defs>
<radialGradient id="paint0_radial" cx="0" cy="0" r="1" gradientUnits="userSpaceOnUse" gradientTransform="translate(229.5 -59) rotate(89.3566) scale(101.435 64.7159)">
<stop/>
<stop offset="1" stop-color="#007AFF"/>
</radialGradient>
<radialGradient id="paint1_radial" cx="0" cy="0" r="1" gradientUnits="userSpaceOnUse" gradientTransform="translate(229.5 81.7455) rotate(90) scale(43.9206 144.516)">
<stop stop-opacity="0.79"/>
<stop offset="1" stop-color="#007AFF"/>
</radialGradient>
</defs>
</svg>
